<svg xmlns="http://www.w3.org/2000/svg" viewBox="0 0 36 36">
  <path d="m 18,10 c -4.406436,0 -8,3.593564 -8,8 0,4.406436 3.593564,8 8,8 4.406436,0 8,-3.593564 8,-8 0,-4.406436 -3.593564,-8 -8,-8 z m 0,2 c 3.325777,0 6,2.674223 6,6 0,3.325777 -2.674223,6 -6,6 -3.325777,0 -6,-2.674223 -6,-6 0,-3.325777 2.674223,-6 6,-6 z m 3,6 c 0,1.656855 -1.343145,3 -3,3 -1.656855,0 -3,-1.343145 -3,-3 0,-1.656855 1.343145,-3 3,-3 1.656855,0 3,1.343145 3,3 z M 10,8 A 2,2 0 0 1 8,10 2,2 0 0 1 6,8 2,2 0 0 1 8,6 2,2 0 0 1 10,8 Z"/>
</svg>