<svg xmlns="http://www.w3.org/2000/svg" viewBox="0 0 36 36">
  <path d="M25 19a1 1 0 1 1-2 0 1 1 0 0 1 2 0zm-4 0a1 1 0 1 1-2 0 1 1 0 0 1 2 0zm-4 0a1 1 0 1 1-2 0 1 1 0 0 1 2 0zm-4 0a1 1 0 1 1-2 0 1 1 0 0 1 2 0zm12-4a1 1 0 1 1-2 0 1 1 0 0 1 2 0zm-4 0a1 1 0 1 1-2 0 1 1 0 0 1 2 0zm-4 0a1 1 0 1 1-2 0 1 1 0 0 1 2 0zm-4 0a1 1 0 1 1-2 0 1 1 0 0 1 2 0zm1.5 7h7a.499.499 0 1 1 0 1h-7a.499.499 0 1 1 0-1ZM10 10c-1.645 0-3 1.355-3 3v11c0 1.645 1.355 3 3 3h16c1.645 0 3-1.355 3-3V13c0-1.645-1.355-3-3-3z"/>
</svg>