<svg xmlns="http://www.w3.org/2000/svg" height="36" width="36" viewBox="0 0 36 36">
  <path fill="#fff" d="m 16.2,10 c -3.202629,0 -3.2,1.811077 -3.2,5.987847 0,1.331583 2,1.331583 2,0 0,-3.975776 0.0038,-3.990471 1.2,-3.990471 h 3.6 c 1.191298,0 1.200003,-0.003 1.200003,4.003936 0,1.331584 2,1.331584 2,0 C 23.000003,11.457486 23.002603,10 19.8,10 Z m -2.7,6 c -2.766395,0 -3.49795,0.685308 -3.5,3.5 v 3 c 0,2.773726 0.851621,3.5 3.5,3.5 h 9 c 2.744752,0 3.5,-0.809153 3.5,-3.5 v -3 C 26,16.869213 25.255768,16 22.5,16 Z m 0,2 h 9 c 1.494846,0 1.497663,0.02206 1.5,1.5 v 3 c 0,1.508512 0.0051,1.499612 -1.5,1.5 h -9 C 12.003969,24 12.000807,23.9988 12,22.5 v -3 C 12,18.008853 12.0039,18 13.5,18 Z"/>
</svg>