<svg xmlns="http://www.w3.org/2000/svg" height="36" width="36" viewBox="0 0 36 36">
  <path fill="#fff" d="M 17 9 C 12.49672 9 11.799257 10.090899 11.955078 15.982422 C 9.7010713 16.14705 9 16.988219 9 19.800781 L 9 22.800781 C 9 26.095503 9.565939 27 13 27 L 23 27 C 26.424706 27 27 26.030635 27 22.800781 L 27 19.800781 C 27 16.894214 26.08632 16.137917 24.044922 15.986328 C 24.210646 9.95523 23.457792 9 19 9 L 17 9 z M 18 11 C 21.98813 11 22.042242 11.029224 22.042969 15.949219 L 13.957031 15.949219 C 13.957809 11.027427 14.013634 11 18 11 z M 13 17.949219 L 23 17.949219 C 25.009474 17.949219 25.028177 17.9547 25 19.800781 L 25 22.800781 C 25 24.97915 25.0029 25 23 25 L 13 25 C 11.015855 25 11 25.003481 11 22.800781 L 11 19.800781 C 11 17.948784 11.01063 17.949219 13 17.949219 z"/>
</svg>