<svg xmlns="http://www.w3.org/2000/svg" viewBox="0 0 36 36">
  <path d="m 21,9 c -1.377393,0 -1.381012,2 0,2 h 2.585938 l -7.347657,7.371094 c -0.98168,0.942508 0.471555,2.395742 1.414063,1.414062 L 25,12.414062 V 15 c 0,1.333389 2,1.401006 2,0 V 10 C 26.999945,9.447735 26.618421,9.000062 26,9 Z m -6,2 c -4.51021,0 -5.0004527,0.548729 -5,5 v 5 c 0,4.453074 0.497464,5 5,5 h 5 c 4.549646,0 5,-0.508893 5,-5 v -1 c 0,-1.352326 -2,-1.352326 -2,0 v 1 c 0,2.985916 -0.0177,2.999407 -3,3 h -5 c -3.007279,0 -2.999759,0.01836 -3,-3 v -5 c 0,-2.993412 -0.0083,-2.999517 3,-3 h 1 c 1.359068,0 1.383346,-2 0,-2 z"/>
</svg>