<svg xmlns="http://www.w3.org/2000/svg" height="36" width="36" viewBox="0 0 36 36">
  <path fill="#fff" d="m 9.9051382,17.189724 a 0.8102765,0.8102765 0 1 0 0,1.620553 H 26.094862 a 0.8102765,0.8102765 0 1 0 0,-1.620553 z M 17.988142,9.0849802 A 0.80956713,0.80956713 0 0 0 17.189723,9.9051384 V 26.094862 a 0.8102765,0.8102765 0 1 0 1.620553,0 V 9.9051384 A 0.80956713,0.80956713 0 0 0 17.988142,9.0849802 Z M 18,1 C 14.419863,1 11.590762,1.1175795 9.312253,1.5395257 7.033744,1.9614718 5.2733117,2.7069254 3.9901186,3.9901186 2.7069253,5.2733117 1.9614719,7.033744 1.5395257,9.312253 1.1175795,11.590762 0.99999995,14.419863 0.99999995,18 c 0,3.580136 0.11757955,6.409238 0.53952575,8.687748 0.4219462,2.278508 1.1673997,4.038941 2.4505929,5.322134 1.2831931,1.283193 3.0436254,2.028647 5.3221344,2.450592 C 11.590762,34.882421 14.419863,35 18,35 c 3.580137,0 6.409238,-0.117579 8.687748,-0.539526 2.278508,-0.421945 4.03894,-1.167399 5.322133,-2.450592 1.283194,-1.283193 2.028648,-3.043626 2.450593,-5.322134 C 34.882421,24.409238 35,21.580136 35,18 35,14.419863 34.882421,11.590762 34.460474,9.312253 34.038529,7.033744 33.293075,5.2733117 32.009881,3.9901186 30.726688,2.7069254 28.966256,1.9614718 26.687748,1.5395257 24.409238,1.1175795 21.580137,1 18,1 Z m 0,1.6205533 c 3.543341,10e-8 6.300565,0.1243176 8.393281,0.5118577 2.092716,0.3875401 3.488963,1.0186081 4.472332,2.0019763 0.983368,0.9833682 1.614436,2.3796158 2.001976,4.4723321 0.38754,2.0927156 0.511858,4.8499396 0.511858,8.3932806 0,3.543341 -0.124318,6.300565 -0.511858,8.393281 -0.38754,2.092716 -1.018608,3.488963 -2.001976,4.472332 -0.983369,0.983368 -2.379616,1.614436 -4.472332,2.001976 -2.092716,0.38754 -4.84994,0.511858 -8.393281,0.511858 -3.543342,0 -6.300565,-0.124318 -8.3932806,-0.511858 C 7.5140031,32.480049 6.1177555,31.848981 5.1343873,30.865613 4.1510191,29.882244 3.5199511,28.485997 3.132411,26.393281 2.7448709,24.300565 2.6205534,21.543341 2.6205533,18 c 0,-3.543341 0.1243176,-6.300565 0.5118577,-8.3932806 C 3.5199511,7.5140031 4.1510191,6.1177555 5.1343873,5.1343873 6.1177555,4.1510191 7.5140031,3.5199511 9.6067194,3.132411 11.699435,2.7448709 14.456658,2.6205533 18,2.6205533 Z"/>
</svg>