<svg xmlns="http://www.w3.org/2000/svg" viewBox="0 0 36 36">
  <path d="m 11.25,9.5996094 a 1.2501648,1.2501648 0 0 0 -0.871094,2.1464846 l 5.853516,5.853515 -5.853516,5.853516 a 1.2501648,1.2501648 0 1 0 1.767578,1.767578 L 18,19.367188 l 5.853516,5.853515 a 1.2501648,1.2501648 0 1 0 1.767578,-1.767578 l -5.853516,-5.853516 5.853516,-5.853515 A 1.2501648,1.2501648 0 0 0 24.712891,9.5996094 1.2501648,1.2501648 0 0 0 23.853516,9.9785156 L 18,15.832031 12.146484,9.9785156 A 1.2501648,1.2501648 0 0 0 11.25,9.5996094 Z M 18,0 C 8.0736814,0 0,8.0736814 0,18 0,27.926319 8.0736814,36 18,36 27.926319,36 36,27.926319 36,18 36,8.0736814 27.926319,0 18,0 Z m 0,2.5 C 26.575159,2.5 33.5,9.4248406 33.5,18 33.5,26.575159 26.575159,33.5 18,33.5 9.4248406,33.5 2.5,26.575159 2.5,18 2.5,9.4248406 9.4248406,2.5 18,2.5 Z"/>
</svg>