<svg xmlns="http://www.w3.org/2000/svg" viewBox="0 0 36 36">
  <path d="m 27.214472,11.00095 a 1.248226,1.2511586 0 0 0 -0.85807,0.379219 l -11.455229,11.480187 -4.752536,-4.7637 A 1.248226,1.2511586 0 1 0 8.3837447,19.865695 L 14.901173,26.400391 28.121295,13.149208 A 1.248226,1.2511586 0 0 0 27.214472,11.00095 Z M 18,0 C 8.0736819,0 0,8.0736819 0,18 0,27.926318 8.0736819,36 18,36 27.926318,36 36,27.926318 36,18 36,8.0736819 27.926318,0 18,0 Z m 0,2.5 C 26.575088,2.5 33.5,9.4249118 33.5,18 33.5,26.575088 26.575088,33.5 18,33.5 9.4249118,33.5 2.5,26.575088 2.5,18 2.5,9.4249118 9.4249118,2.5 18,2.5 Z"/>
</svg>