<svg xmlns="http://www.w3.org/2000/svg" viewBox="0 0 36 36">
  <path d="m 18.04776,7.8528139 c 2.072092,4e-7 2.969924,0.9611589 3.133923,2.3348301 0.117775,0.986492 1.140566,1.573842 2.058302,1.19044 2.142763,-0.895192 2.773187,-0.417193 3.820455,1.434704 1.045198,1.848242 1.118986,2.550048 -0.677986,3.996914 -0.775169,0.62414 -0.806732,1.791696 0,2.374467 1.935662,1.398293 1.572463,2.45099 0.673118,4.008701 -0.955139,1.654348 -1.696984,2.35055 -3.817719,1.421841 -0.911597,-0.399206 -1.954008,0.199609 -2.057236,1.188299 -0.126206,1.208723 -0.622108,2.296966 -3.117298,2.296966 -2.294524,2e-6 -2.993688,-0.926928 -3.170846,-2.294831 -0.127356,-0.983361 -1.150488,-1.588046 -2.057236,-1.184033 -2.105608,0.938178 -2.9351689,0.104016 -3.7980616,-1.390558 -1.0184599,-1.76462 -1.2306634,-2.662007 0.6534545,-4.046395 0.8023941,-0.589571 0.8069591,-1.791155 -8e-7,-2.374466 -1.8774444,-1.35711 -1.5604561,-2.46881 -0.6565396,-4.034439 1.0984725,-1.902611 1.6924595,-2.315603 3.7968725,-1.39611 0.912541,0.398722 1.953812,-0.203687 2.061511,-1.192569 0.148393,-1.3625432 1.236384,-2.3337602 3.155284,-2.3337626 z m -1e-6,1.6674598 c -0.767835,-6e-7 -1.475186,0.028365 -1.56269,0.8433753 -0.221504,2.063119 -2.398754,3.322148 -4.298196,2.481136 -1.117591,-0.494833 -1.308349,-0.06551 -1.782433,0.761577 -0.4615004,0.805142 -0.7408896,1.198798 0.235766,1.915829 1.673072,1.228318 1.660217,3.707034 0,4.95267 -0.928631,0.696738 -0.6936241,1.128652 -0.227746,1.935574 0.533539,0.896879 0.709838,1.179735 1.780811,0.745043 1.919599,-0.779139 4.061467,0.415963 4.290706,2.472621 0.08445,0.757651 0.765354,0.80555 1.579176,0.805552 0.862157,0 1.452825,-0.207551 1.525909,-0.805548 0.251354,-2.056723 2.384511,-3.292467 4.291788,-2.476866 1.115031,0.476816 1.348231,0.01033 1.785839,-0.753922 0.49613,-0.866454 0.746379,-1.204196 -0.232776,-1.923514 -1.672701,-1.228818 -1.664472,-3.712726 0,-4.952672 1.031652,-0.768526 0.739437,-1.039798 0.238157,-1.908043 -0.568878,-0.952217 -0.674684,-1.256111 -1.784822,-0.770432 -1.902755,0.832445 -4.058312,-0.418234 -4.297135,-2.478989 -0.09667,-0.8341756 -0.8096,-0.843375 -1.542394,-0.8433785 z m -0.01282,5.3138763 c -4.225969,-0.0032 -4.225968,6.322334 -1e-6,6.325557 4.219518,-0.0032 4.219517,-6.328777 1e-6,-6.325557 z"/>
</svg>