<svg xmlns="http://www.w3.org/2000/svg" height="36" width="36" viewBox="0 0 36 36">
  <path fill="#fff" d="M 17,7 C 12.49672,7 11.799257,10.090899 11.955078,15.982422 9.701071,16.14705 9,16.988219 9,19.800781 v 3 C 9,26.095503 9.565939,27 13,27 h 10 c 3.424706,0 4,-0.969365 4,-4.199219 v -3 C 27,16.511402 25.89811,15.949 23,15.949 l -9.042969,2.18e-4 C 13.957809,11.027427 14.013634,9 18,9 c 2.787224,0 3.880061,0.1971109 4.007812,2.433593 0.06414,1.122802 2.071243,0.858608 2.025391,-0.187499 C 23.892174,8.0285078 22.36549,7 19,7 Z m -4,10.949219 h 10 c 2.009474,0 2.028177,0.0055 2,1.851562 v 3 C 25,24.97915 25.0029,25 23,25 H 13 c -1.984145,0 -2,0.0035 -2,-2.199219 v -3 c 0,-1.851997 0.01063,-1.851562 2,-1.851562 z"/>
</svg>