<svg xmlns="http://www.w3.org/2000/svg" viewBox="0 0 948.21 236.93">
  <path d="M0 26.97C0 10.08 13.67-.25 29.64-.25c16.53 0 29.41 10.58 29.41 27.22 0 16.36-13.51 27-29.41 27C14.67 53.94 0 44.46 0 26.97zm54.67 44v163.28H4.61V70.95Zm137.3-1.94v53h-13.61c-25.65 0-37.67 9.69-37.67 36.21v75.81H90.88V70.95h50.06v27.22c18.1-27.17 40.8-29.16 51.03-29.16zm19.56-42c0-16.95 13.67-27.28 29.65-27.28 16.52 0 29.4 10.58 29.4 27.22 0 16.36-13.51 27-29.4 27-14.98-.03-29.65-9.51-29.65-27zm54.67 44v163.22h-50.05V70.95Zm148.6-53.46v75.98c-10.94-16.49-30.42-25-50.3-25-42.12 0-72.17 34.65-72.17 83.83 0 50.32 30.38 84.08 71.92 84.08 21.29 0 40.16-8.54 50.55-25.76v23.33h50.06V17.49Zm-35.06 175.61c-19.67 0-36.35-14.18-36.35-40.83 0-31.35 23-40.28 35.68-40.28 16 0 35.76 11.76 35.76 40.53-.03 26.73-17.79 40.58-35.09 40.58zM496.45 26.97c0-16.89 13.67-27.22 29.64-27.22 16.53 0 29.41 10.58 29.41 27.22 0 16.36-13.51 27-29.41 27-14.97-.03-29.64-9.51-29.64-27zm54.67 44v163.28h-50.06V70.95Zm148.23 0v23.06c-10.22-17.11-29-25.51-50.3-25.51-46.84 0-72.17 40.48-72.17 84.08 0 54.23 34 84.08 71.68 84.08 21.65 0 39.88-8.73 50.79-25.52v23.08h50.06V70.95Zm-35.14 122.32c-19.33 0-35.81-14.79-35.81-40.94 0-29.52 21-40.28 35.15-40.28 21.66 0 36.29 16.76 36.29 40.53 0 28.23-18.8 40.69-35.63 40.69zm284-54.54v95.5h-49.57v-88.7c0-28.88-20.4-34.63-31.35-34.63-7 0-31.34 2.91-31.34 34.63V234h-50.06V70.95h50.06v21.63c11.23-15.53 30-23.33 49.33-23.33 42.6 0 62.9 29.75 62.9 69.5z"/>
</svg>