<svg xmlns="http://www.w3.org/2000/svg" viewBox="0 0 1197.47 236.93">
  <defs>
    <linearGradient id="1" x1="227.14" x2="227.14" y1="236.68" gradientUnits="userSpaceOnUse">
      <stop offset="0" stop-color="#00f078"/>
      <stop offset=".4" stop-color="#00b464"/>
      <stop offset=".49" stop-color="#00a664"/>
      <stop offset=".83" stop-color="#007664"/>
      <stop offset="1" stop-color="#006464"/>
    </linearGradient>
    <linearGradient id="2" x1="150.54" x2="150.54" y1="236.68" gradientUnits="userSpaceOnUse">
      <stop offset="0" stop-color="#006464"/>
      <stop offset=".17" stop-color="#007664"/>
      <stop offset=".51" stop-color="#00a664"/>
      <stop offset=".6" stop-color="#00b464"/>
      <stop offset="1" stop-color="#00f078"/>
    </linearGradient>
  </defs>
  <g>
    <path fill="url(#1)" d="M70 10 0 0c19 83.24 44 163.33 76.3 236.68h71.93C118.89 182.94 90.13 101.86 70 10Z"/>
    <path fill="url(#2)" d="m154.65 10 70-10c-19 83.24-43.94 163.33-76.3 236.68H76.42c29.34-53.74 58.1-134.82 78.23-226.68Z"/>
  </g>
  <path fill="#f4f8fc" d="M249.26 27.22C249.26 10.33 262.93 0 278.9 0c16.53 0 29.41 10.58 29.41 27.22 0 16.36-13.51 27-29.41 27-14.97-.03-29.64-9.51-29.64-27Zm54.67 44V234.5h-50.06V71.2Zm137.3-1.94v53h-13.61c-25.65 0-37.67 9.69-37.67 36.21v75.81h-49.81V71.2h50.06v27.22c18.1-27.17 40.8-29.16 51.03-29.16Zm19.56-42C460.79 10.33 474.46 0 490.44 0c16.52 0 29.4 10.58 29.4 27.22 0 16.36-13.51 27-29.4 27-14.98-.03-29.65-9.51-29.65-27Zm54.67 44V234.5h-50.05V71.2Zm148.6-53.46V93.8c-10.94-16.49-30.42-25-50.3-25-42.12 0-72.17 34.65-72.17 83.83 0 50.32 30.38 84.08 71.92 84.08 21.29 0 40.16-8.54 50.55-25.76v23.33h50.06V17.74ZM629 193.43c-19.67 0-36.35-14.18-36.35-40.83 0-31.35 23-40.28 35.68-40.28 16 0 35.76 11.76 35.76 40.53-.03 26.73-17.79 40.58-35.09 40.58ZM745.71 27.22C745.71 10.33 759.38 0 775.35 0c16.53 0 29.41 10.58 29.41 27.22 0 16.36-13.51 27-29.41 27-14.97-.03-29.64-9.51-29.64-27Zm54.67 44V234.5h-50.06V71.2Zm148.23 0v23.06c-10.22-17.11-29-25.51-50.3-25.51-46.84 0-72.17 40.48-72.17 84.08 0 54.23 34 84.08 71.68 84.08 21.65 0 39.88-8.73 50.79-25.52v23.08h50.06V71.2Zm-35.14 122.32c-19.33 0-35.81-14.79-35.81-40.94 0-29.52 21-40.28 35.15-40.28 21.66 0 36.29 16.76 36.29 40.53 0 28.23-18.8 40.69-35.63 40.69Zm284-54.54v95.5h-49.57v-88.7c0-28.88-20.4-34.63-31.35-34.63-7 0-31.34 2.91-31.34 34.63v88.45h-50.06V71.2h50.06v21.63c11.23-15.53 30-23.33 49.33-23.33 42.6 0 62.9 29.75 62.9 69.5Z"/>
</svg>